<?xml version="1.0" standalone="no"?>
<!DOCTYPE svg PUBLIC "-//W3C//DTD SVG 20010904//EN"
 "http://www.w3.org/TR/2001/REC-SVG-20010904/DTD/svg10.dtd">
<svg version="1.0" xmlns="http://www.w3.org/2000/svg"
 width="256.000000pt" height="256.000000pt" viewBox="0 0 256.000000 256.000000"
 preserveAspectRatio="xMidYMid meet">

<g transform="translate(0.000000,256.000000) scale(0.100000,-0.100000)"
stroke="none">
<path d="M1055 2155 c-369 -68 -659 -321 -746 -652 -26 -98 -29 -268 -5 -365
76 -320 333 -565 692 -659 77 -21 111 -24 254 -23 144 1 177 4 261 26 177 48
309 121 438 243 114 109 190 233 233 382 32 111 32 295 0 407 -95 329 -385
577 -751 641 -100 18 -279 18 -376 0z m333 -30 c141 -13 337 -92 452 -180 30
-24 83 -71 116 -107 325 -339 277 -859 -106 -1153 -292 -225 -716 -262 -1054
-94 -281 141 -453 384 -473 673 -19 273 117 535 366 705 79 54 91 59 91 37 0
-7 7 -19 15 -26 13 -11 15 -65 15 -371 0 -348 -1 -359 -20 -371 -11 -7 -20
-24 -20 -37 l0 -23 163 5 c89 3 172 8 185 12 l22 7 0 -170 0 -170 -25 -16
c-14 -9 -25 -25 -25 -36 0 -19 7 -20 100 -20 93 0 100 1 100 20 0 11 -9 25
-20 32 -19 12 -20 24 -20 223 0 207 5 250 27 223 6 -7 65 -122 132 -255 l121
-243 45 0 45 0 0 355 0 355 25 22 c14 12 25 30 25 40 0 16 -10 18 -95 18 -92
0 -95 -1 -95 -23 0 -12 9 -28 20 -35 19 -12 20 -23 19 -215 l0 -202 -120 238
-119 237 -38 0 c-49 0 -163 45 -135 54 11 3 41 20 67 36 80 51 108 155 67 245
-42 92 -98 116 -286 124 l-140 6 60 22 c92 34 182 55 270 63 79 7 118 7 243
-5z m-346 -177 c36 -14 58 -64 58 -135 0 -80 -23 -124 -74 -141 -65 -21 -66
-19 -66 141 0 79 3 147 7 150 7 7 29 3 75 -15z m28 -387 c40 -29 55 -69 54
-147 0 -102 -36 -150 -124 -161 l-40 -6 0 173 0 173 43 -7 c23 -4 53 -15 67
-25z"/>
<path d="M332 1350 c5 -45 98 -37 98 9 0 13 -10 16 -50 16 -48 0 -51 -1 -48
-25z m78 -6 c0 -11 -8 -14 -32 -12 -46 4 -49 28 -4 28 26 0 36 -4 36 -16z"/>
<path d="M2123 1361 c-3 -12 -10 -21 -15 -21 -6 0 -8 7 -4 15 3 8 1 15 -5 15
-14 0 -7 -42 8 -47 7 -3 15 7 19 21 3 14 11 23 16 20 5 -4 8 -15 5 -25 -3 -11
-1 -19 5 -19 14 0 5 53 -10 58 -7 2 -16 -5 -19 -17z"/>
<path d="M2103 1293 c-18 -7 -16 -50 2 -57 37 -14 69 29 39 51 -19 14 -22 14
-41 6z m34 -37 c-4 -9 -11 -16 -17 -16 -17 0 -24 31 -9 41 18 11 34 -5 26 -25z"/>
<path d="M391 1274 c0 -11 3 -14 6 -6 3 7 2 16 -1 19 -3 4 -6 -2 -5 -13z"/>
<path d="M410 1270 c0 -5 5 -10 10 -10 6 0 10 5 10 10 0 6 -4 10 -10 10 -5 0
-10 -4 -10 -10z"/>
<path d="M341 1238 c1 -16 3 -18 6 -6 2 9 12 19 21 21 12 3 10 5 -5 6 -18 1
-23 -4 -22 -21z"/>
<path d="M387 1204 c-4 -4 -7 -16 -7 -26 0 -11 -5 -16 -11 -13 -6 4 -8 13 -5
21 3 8 1 14 -5 14 -18 0 -5 -45 14 -48 13 -3 17 3 17 23 0 16 4 24 11 20 6 -4
8 -13 5 -21 -3 -8 -1 -14 5 -14 13 0 7 42 -7 47 -5 2 -13 0 -17 -3z"/>
<path d="M2073 1194 c-9 -24 23 -51 45 -38 19 13 29 44 13 44 -6 0 -8 -6 -5
-14 8 -20 -14 -30 -32 -15 -14 12 -14 14 2 26 17 12 17 13 1 13 -10 0 -20 -7
-24 -16z"/>
<path d="M415 1138 c-6 -5 -19 -15 -29 -22 -21 -15 -14 -36 12 -35 11 0 12 3
5 6 -23 9 -14 25 11 21 29 -6 56 27 28 34 -9 3 -22 1 -27 -4z"/>
<path d="M2111 1122 c-1 -8 -11 -12 -28 -10 -15 2 -27 -2 -29 -10 -1 -7 0 -8
2 -3 8 14 44 0 44 -18 1 -14 2 -14 11 2 6 10 8 25 6 35 -3 9 -5 11 -6 4z"/>
<path d="M435 1054 c-11 -8 -25 -12 -32 -10 -7 3 -10 -1 -6 -10 4 -11 9 -12
19 -3 16 13 48 4 39 -11 -3 -5 -2 -10 4 -10 16 0 19 14 7 36 -11 20 -14 20
-31 8z"/>
<path d="M2025 1050 c-4 -6 -11 -8 -16 -5 -5 4 -9 3 -9 -2 1 -19 17 -28 50
-28 25 0 36 5 38 18 2 9 -2 17 -8 17 -6 0 -8 -5 -4 -11 4 -7 -2 -9 -17 -7 -13
2 -23 9 -21 16 3 15 -4 16 -13 2z"/>
<path d="M486 983 c5 -19 -30 -34 -46 -20 -10 10 -10 8 -1 -10 13 -26 33 -41
25 -19 -3 9 -2 16 3 16 12 0 53 35 53 45 0 4 -6 2 -14 -4 -8 -7 -16 -8 -18 -4
-3 4 -3 2 -2 -4z"/>
<path d="M1991 981 c-15 -28 5 -38 30 -15 15 14 19 14 19 3 0 -8 -5 -20 -12
-27 -9 -9 -9 -12 0 -12 16 0 26 25 18 46 -6 16 -8 16 -24 0 -23 -20 -39 -21
-22 -1 7 9 10 18 7 21 -3 3 -10 -3 -16 -15z"/>
<path d="M510 920 c-34 -28 -34 -30 -17 -47 26 -26 52 -6 53 41 1 20 1 36 0
36 -1 0 -17 -14 -36 -30z m30 -25 c0 -16 -27 -32 -37 -22 -3 4 -3 13 0 22 8
20 37 20 37 0z"/>
<path d="M1950 914 c-11 -13 -10 -19 9 -37 l22 -22 20 24 19 24 -26 13 c-32
17 -29 17 -44 -2z m20 -10 c0 -8 -5 -12 -10 -9 -6 4 -8 11 -5 16 9 14 15 11
15 -7z m22 -26 c-9 -9 -12 -7 -12 12 0 19 3 21 12 12 9 -9 9 -15 0 -24z"/>
<path d="M565 860 c3 -6 -1 -13 -9 -16 -20 -8 -20 -31 -1 -51 14 -13 17 -12
35 9 22 26 25 38 10 38 -5 0 -9 -6 -7 -12 1 -7 -8 -14 -20 -16 -26 -4 -30 10
-8 28 17 14 20 30 4 30 -5 0 -7 -5 -4 -10z"/>
<path d="M1866 854 c-5 -13 -4 -14 7 -5 19 15 69 -23 60 -46 -9 -23 14 -8 28
19 8 15 8 19 -1 13 -7 -4 -25 2 -41 14 -34 25 -45 26 -53 5z"/>
<path d="M1833 823 c-7 -2 -13 -8 -13 -13 0 -13 62 -72 69 -65 3 4 -2 11 -12
17 -14 7 -16 13 -6 24 22 27 -2 52 -38 37z m32 -12 c7 -12 -12 -24 -25 -16
-11 7 -4 25 10 25 5 0 11 -4 15 -9z"/>
<path d="M635 789 c7 -18 -19 -44 -35 -34 -23 14 -8 -4 16 -20 15 -9 24 -12
20 -6 -4 5 -1 19 6 30 10 17 10 23 0 33 -11 11 -12 10 -7 -3z"/>
<path d="M735 740 c4 -6 -5 -7 -23 -4 -50 10 -66 -36 -22 -64 16 -10 20 -10
20 1 0 8 9 22 20 32 21 19 27 45 9 45 -5 0 -7 -4 -4 -10z m-21 -19 c8 -12 -21
-34 -33 -27 -6 4 -8 13 -4 21 6 17 29 20 37 6z"/>
<path d="M1753 723 c-19 -7 -15 -33 5 -33 14 0 15 2 2 10 -12 7 -10 11 10 19
14 5 18 10 10 10 -8 -1 -21 -3 -27 -6z"/>
<path d="M1790 700 c13 -9 13 -11 0 -19 -8 -5 -19 -7 -25 -4 -5 3 -5 0 2 -7
10 -11 15 -11 28 0 20 17 19 40 -2 40 -15 0 -16 -2 -3 -10z"/>
<path d="M744 676 c-10 -26 4 -48 28 -44 17 2 23 10 23 28 0 18 -6 26 -23 28
-13 2 -25 -3 -28 -12z m44 -19 c2 -12 -3 -17 -17 -17 -15 0 -21 6 -21 21 0 25
33 22 38 -4z"/>
<path d="M1692 681 c-18 -11 -12 -41 10 -55 14 -8 22 -7 35 7 11 10 13 17 5
17 -7 0 -12 -4 -12 -10 0 -5 -7 -10 -15 -10 -20 0 -19 10 2 25 9 7 13 17 9 23
-8 14 -16 15 -34 3z m28 -10 c0 -5 -7 -11 -15 -15 -15 -5 -20 5 -8 17 9 10 23
9 23 -2z"/>
<path d="M835 650 c3 -5 -3 -18 -15 -30 -11 -11 -18 -20 -16 -20 2 0 12 -3 21
-6 9 -4 15 -3 14 2 -5 31 24 50 33 22 3 -9 6 -9 11 -1 4 7 -5 18 -23 27 -17 8
-28 11 -25 6z"/>
<path d="M1617 643 c-11 -10 -8 -33 4 -33 5 0 7 5 4 10 -3 6 4 14 17 19 22 9
22 10 2 10 -11 1 -24 -2 -27 -6z"/>
<path d="M1649 621 c7 -5 10 -14 7 -20 -4 -6 -3 -11 2 -11 12 0 23 26 15 34
-4 3 -13 6 -22 6 -13 0 -13 -2 -2 -9z"/>
<path d="M901 601 c-14 -25 -14 -41 0 -41 5 0 8 4 5 9 -8 12 21 48 30 38 5 -4
2 -12 -5 -16 -11 -7 -11 -10 0 -14 11 -4 11 -6 1 -6 -7 -1 -10 -5 -7 -11 12
-20 22 -9 21 22 -1 39 -29 50 -45 19z"/>
<path d="M1540 609 c-10 -7 -11 -12 -4 -15 7 -3 10 -14 7 -24 -6 -23 5 -25 40
-9 l25 11 -21 24 c-23 27 -26 28 -47 13z m34 -16 c7 -18 -9 -41 -21 -29 -4 4
-1 11 7 16 10 7 11 10 3 10 -7 0 -13 5 -13 10 0 16 17 11 24 -7z"/>
<path d="M1075 590 c3 -6 -5 -10 -19 -10 -16 0 -27 -7 -31 -21 -8 -24 0 -34
35 -42 24 -6 25 -3 28 38 1 27 -2 45 -8 45 -6 0 -8 -4 -5 -10z m-5 -40 c0 -11
-6 -20 -13 -20 -19 0 -27 10 -20 26 8 21 33 17 33 -6z"/>
<path d="M1494 594 c-7 -3 -10 -14 -7 -24 6 -23 -12 -27 -21 -5 -3 8 -10 15
-16 15 -15 0 22 -49 36 -50 7 0 14 16 16 35 2 19 4 35 3 34 0 0 -5 -3 -11 -5z"/>
<path d="M1258 545 c4 -42 6 -45 33 -45 21 0 29 5 28 18 0 10 -3 12 -6 5 -7
-19 -43 -16 -43 3 0 10 6 14 15 10 9 -3 15 0 15 9 0 9 -6 12 -15 9 -9 -4 -15
0 -15 10 0 19 36 22 43 4 3 -8 6 -6 6 5 1 13 -7 17 -32 17 -32 0 -32 0 -29
-45z"/>
<path d="M1120 555 c-10 -12 -11 -21 -3 -33 11 -19 53 -29 53 -14 0 6 -9 8
-20 5 -11 -3 -20 0 -20 6 0 6 9 11 21 11 14 0 19 5 17 17 -4 24 -32 28 -48 8z
m35 -5 c3 -5 -1 -10 -10 -10 -9 0 -13 5 -10 10 3 6 8 10 10 10 2 0 7 -4 10
-10z"/>
<path d="M1355 552 c3 -8 5 -22 5 -33 0 -10 5 -19 10 -19 6 0 8 10 4 24 -3 14
-1 27 6 31 14 9 32 -14 25 -32 -2 -7 2 -13 10 -13 11 0 12 6 4 30 -9 24 -16
29 -40 27 -20 -1 -28 -6 -24 -15z"/>
</g>
</svg>
