<?xml version="1.0" standalone="no"?>
<!DOCTYPE svg PUBLIC "-//W3C//DTD SVG 20010904//EN"
 "http://www.w3.org/TR/2001/REC-SVG-20010904/DTD/svg10.dtd">
<svg version="1.0" xmlns="http://www.w3.org/2000/svg"
 width="564.000000pt" height="564.000000pt" viewBox="0 0 564.000000 564.000000"
 preserveAspectRatio="xMidYMid meet">

<g transform="translate(0.000000,564.000000) scale(0.100000,-0.100000)"
fill="#00c828" stroke="none">
<path d="M2690 4846 c-45 -23 -269 -151 -338 -193 -20 -13 -36 -28 -34 -34 1
-6 -2 -8 -8 -4 -6 4 -22 0 -35 -9 -14 -9 -27 -15 -29 -14 -2 2 -12 -4 -22 -13
-11 -9 -46 -31 -79 -49 -77 -43 -106 -65 -97 -75 4 -5 1 -5 -5 -1 -19 11 -52
-12 -48 -32 2 -12 -3 -18 -17 -18 -18 0 -18 1 -2 13 21 16 10 17 -17 2 -11 -5
-17 -14 -14 -19 3 -6 0 -7 -8 -4 -8 3 -20 -2 -27 -10 -12 -15 -30 -13 -30 2 0
4 15 16 33 26 57 33 69 47 54 65 -11 14 -10 14 5 3 19 -16 18 -16 113 52 88
64 145 115 145 132 0 7 -8 18 -18 23 -14 7 -35 1 -88 -26 -38 -19 -76 -41 -85
-49 -8 -8 -18 -14 -22 -14 -3 0 -22 -10 -42 -21 -28 -17 -33 -24 -23 -31 9 -7
8 -8 -5 -4 -12 4 -45 -10 -90 -37 -40 -24 -106 -63 -147 -88 -41 -24 -88 -52
-105 -61 -16 -10 -49 -28 -72 -40 -43 -22 -53 -44 -32 -65 9 -9 19 -8 40 3 26
13 29 13 29 0 0 -9 -10 -21 -22 -27 -13 -6 -42 -27 -65 -45 -23 -19 -45 -34
-49 -34 -4 0 -31 -19 -61 -42 -40 -30 -51 -44 -41 -50 9 -7 7 -8 -7 -4 -14 4
-33 -6 -63 -30 -45 -39 -51 -54 -27 -74 13 -11 23 -10 53 4 81 38 251 140 246
147 -3 5 1 7 8 4 17 -7 230 124 223 136 -4 5 0 6 7 4 7 -3 35 8 60 24 51 33
75 26 32 -8 -15 -12 -31 -21 -36 -21 -5 0 -6 -5 -2 -12 4 -6 3 -8 -4 -4 -13 8
-104 -52 -97 -65 4 -5 0 -6 -7 -4 -14 5 -147 -83 -218 -144 l-35 -29 24 -26
24 -25 -27 -12 c-14 -7 -26 -16 -26 -21 0 -4 -5 -8 -11 -8 -6 0 -30 -12 -53
-28 -22 -15 -71 -45 -108 -67 -37 -22 -66 -45 -64 -51 3 -7 -3 -10 -12 -7 -10
2 -33 -7 -52 -22 -19 -14 -96 -65 -170 -114 -74 -49 -155 -107 -179 -128 -39
-35 -42 -42 -32 -61 6 -12 16 -22 21 -22 30 0 246 117 242 131 -1 6 2 8 7 4
15 -8 122 55 114 67 -3 7 -1 8 5 4 6 -4 29 5 51 19 23 14 45 25 51 25 5 0 10
4 10 9 0 5 9 7 20 4 19 -5 17 -8 -14 -29 -19 -13 -37 -24 -40 -24 -14 0 -135
-83 -131 -90 3 -5 0 -12 -6 -16 -8 -4 -9 -3 -5 4 12 19 -4 14 -55 -19 -51 -32
-78 -59 -61 -59 6 0 13 5 15 10 3 6 4 5 3 -2 -2 -7 -12 -13 -23 -13 -24 0 -63
-32 -63 -51 0 -7 9 -18 21 -24 17 -10 34 -5 97 25 91 43 314 168 359 202 17
12 34 23 37 23 2 0 42 23 87 50 81 49 99 57 99 43 0 -9 -44 -38 -133 -90 -31
-19 -55 -38 -52 -43 3 -5 0 -12 -6 -16 -8 -5 -9 -3 -4 6 5 8 3 11 -6 8 -8 -3
-14 -10 -14 -15 0 -6 -4 -15 -9 -20 -5 -5 -6 -3 -2 5 9 15 1 15 -23 0 -18 -11
-18 -13 -3 -25 15 -12 14 -13 -6 -3 -20 10 -29 6 -72 -30 -28 -23 -50 -46 -50
-52 0 -15 27 -38 44 -38 24 0 19 -18 -6 -26 -13 -4 -51 -26 -85 -50 -35 -24
-65 -44 -68 -44 -12 0 -244 -161 -285 -198 -38 -34 -43 -43 -34 -59 16 -26 37
-27 86 -4 61 28 173 91 241 134 31 20 59 37 62 37 12 0 95 59 88 62 -4 3 -2 3
5 1 8 -2 26 5 40 16 46 31 124 72 129 67 8 -7 -17 -28 -59 -51 -21 -11 -38
-23 -38 -27 0 -5 -4 -8 -9 -8 -5 0 -56 -28 -113 -63 -158 -96 -161 -99 -146
-109 9 -7 7 -8 -6 -4 -12 4 -34 -3 -60 -20 -54 -36 -94 -74 -78 -74 7 0 10 -5
6 -11 -4 -8 -9 -7 -15 2 -8 12 -11 12 -18 0 -14 -21 5 -51 32 -51 31 1 173 75
169 90 -1 6 2 9 8 5 5 -3 27 6 47 20 21 14 43 25 50 25 23 0 14 -19 -18 -35
-27 -14 -29 -18 -17 -33 12 -15 11 -16 -4 -4 -19 15 -18 15 -95 -35 -37 -25
-50 -39 -47 -51 5 -14 4 -14 -4 -3 -8 12 -19 7 -61 -23 -53 -39 -70 -68 -52
-90 12 -14 57 -10 67 5 3 5 14 9 25 9 30 0 16 -14 -48 -50 -44 -25 -53 -34
-42 -42 11 -8 10 -9 -4 -4 -18 6 -60 -18 -214 -121 -105 -70 -131 -98 -116
-121 7 -10 22 -16 41 -16 31 2 158 59 169 77 4 6 1 7 -7 2 -8 -5 -11 -4 -7 3
8 12 47 4 47 -9 0 -5 -13 -17 -29 -27 -123 -75 -149 -147 -46 -128 22 5 33 11
29 18 -4 6 -3 8 3 5 12 -8 105 36 200 94 35 21 66 39 70 39 3 0 33 17 67 38
34 21 69 41 79 45 11 4 15 12 11 18 -5 8 -3 9 5 5 7 -5 20 -2 29 6 26 23 133
80 139 74 8 -7 -27 -34 -124 -97 -79 -51 -113 -81 -113 -103 0 -3 9 -14 20
-24 21 -19 21 -19 -57 -67 -252 -156 -463 -308 -463 -334 0 -57 41 -53 177 17
43 22 50 29 40 42 -11 13 -10 13 6 1 15 -12 20 -12 35 1 30 26 42 30 42 14 0
-8 -19 -28 -42 -44 -24 -16 -42 -34 -41 -40 2 -7 -2 -11 -8 -9 -16 3 -33 -28
-26 -47 11 -28 52 -18 179 48 159 82 158 82 261 145 63 39 84 57 75 63 -9 6
-6 7 8 3 13 -3 28 0 35 8 15 15 77 47 91 47 27 0 -7 -27 -130 -104 -159 -98
-205 -137 -200 -169 2 -17 9 -22 31 -20 18 1 27 -3 27 -13 0 -8 -5 -14 -10
-14 -6 0 -48 -25 -95 -55 -66 -42 -83 -58 -79 -72 5 -14 4 -15 -4 -4 -5 7 -15
10 -22 6 -9 -6 -9 -10 1 -17 10 -7 8 -8 -7 -3 -22 6 -55 -15 -112 -73 -28 -28
-31 -36 -21 -54 9 -16 17 -19 45 -15 32 5 184 77 251 119 l33 20 -2 -25 c-1
-14 -6 -23 -11 -20 -9 5 -57 -35 -57 -48 0 -20 34 -40 59 -34 32 8 143 64 276
140 55 32 125 71 155 88 30 17 69 40 85 52 50 36 55 38 55 16 0 -12 -3 -20 -7
-19 -9 3 -103 -60 -103 -68 0 -3 9 -2 20 1 11 3 20 2 20 -3 0 -6 -12 -9 -27
-7 -50 5 -89 -66 -44 -80 23 -7 110 26 172 66 25 16 51 29 57 29 26 0 9 -20
-40 -48 -54 -31 -138 -105 -138 -121 0 -29 44 -37 93 -16 9 4 17 3 17 -1 0 -5
-39 -33 -88 -63 -140 -86 -152 -95 -140 -102 6 -4 0 -7 -13 -6 -26 1 -268
-153 -308 -196 -20 -22 -22 -29 -11 -42 7 -8 22 -15 34 -14 30 0 111 34 109
45 -1 5 8 10 20 11 27 2 227 112 227 124 0 5 8 9 18 10 9 0 82 40 162 88 80
49 149 86 153 84 9 -6 -21 -43 -35 -43 -18 0 -87 -53 -81 -63 3 -6 1 -7 -6 -3
-14 9 -91 -50 -91 -69 0 -27 29 -45 55 -35 14 5 27 6 30 0 3 -5 -26 -28 -65
-51 -39 -23 -67 -46 -63 -52 3 -6 1 -7 -6 -3 -14 9 -233 -130 -293 -186 -38
-35 -41 -40 -26 -55 12 -11 26 -14 50 -9 43 8 304 151 301 165 -2 6 3 8 10 5
7 -2 34 9 60 26 26 16 50 30 53 30 11 0 83 53 80 59 -2 3 9 6 25 7 41 2 26
-13 -76 -76 -47 -28 -83 -56 -80 -61 4 -5 0 -6 -7 -4 -16 6 -119 -66 -114 -80
2 -5 9 -9 15 -7 7 1 10 -2 6 -8 -5 -8 -11 -7 -21 1 -12 9 -18 9 -27 0 -15 -15
3 -45 30 -49 34 -5 387 184 376 201 -3 6 -1 7 5 3 6 -4 21 -2 32 4 18 10 19
14 8 28 -11 15 -11 15 3 4 14 -11 26 -7 78 25 34 21 81 50 106 64 25 14 43 28
40 31 -3 2 1 5 8 5 12 0 110 57 247 143 91 57 204 124 277 166 30 17 62 37 71
45 9 8 33 22 52 32 19 10 49 26 65 36 17 10 44 23 60 29 l30 12 -30 -5 c-142
-23 -191 -26 -270 -21 -99 7 -194 30 -307 75 l-73 29 -130 -33 c-72 -18 -176
-45 -233 -60 -57 -15 -106 -25 -108 -22 -3 3 11 63 31 133 19 71 46 170 60
219 28 102 30 126 13 143 -9 9 -19 6 -44 -13 -18 -14 -35 -25 -38 -25 -16 0
-95 -57 -89 -64 4 -4 1 -5 -7 -1 -9 3 -45 -14 -82 -37 -37 -24 -82 -51 -100
-61 -26 -15 -29 -20 -17 -28 10 -8 9 -9 -8 -4 -15 4 -46 -10 -111 -50 -49 -30
-94 -55 -100 -55 -7 0 -12 -4 -12 -10 0 -5 -7 -7 -15 -4 -17 7 -20 24 -4 24 6
0 48 23 95 52 61 37 81 54 72 61 -9 6 -8 7 5 3 10 -3 32 1 48 10 26 13 29 18
18 32 -11 14 -11 15 1 5 21 -19 35 -16 19 4 -13 15 -12 15 7 5 18 -9 29 -5 75
26 30 20 77 48 105 63 48 26 104 61 147 91 18 13 18 15 -3 63 -28 65 -60 206
-60 269 0 39 -3 47 -16 42 -15 -6 -274 -162 -324 -196 -14 -9 -45 -27 -70 -41
-25 -13 -47 -26 -50 -29 -14 -14 -93 -51 -98 -46 -8 9 6 21 54 48 41 23 185
110 229 138 13 8 80 48 149 88 l126 73 0 47 c0 120 60 308 137 429 18 28 55
77 83 108 27 32 47 62 43 68 -3 6 -1 7 6 3 6 -4 31 10 59 34 101 89 254 160
415 191 300 58 594 -37 816 -265 30 -30 58 -53 62 -50 4 2 11 -1 15 -7 4 -8 3
-9 -4 -5 -7 4 -12 3 -12 -3 0 -5 4 -12 9 -15 5 -3 30 -41 55 -85 123 -209 157
-477 91 -706 -30 -103 -93 -232 -143 -295 -55 -69 -60 -78 -37 -59 28 23 285
179 294 179 5 0 26 13 47 28 21 15 66 43 99 62 33 18 62 36 65 39 9 11 88 51
99 51 24 0 9 -18 -36 -44 -27 -14 -55 -31 -63 -36 -8 -5 -50 -30 -93 -56 -45
-27 -74 -50 -71 -56 4 -7 2 -8 -4 -4 -12 7 -294 -154 -307 -174 -4 -6 -11 -8
-16 -5 -5 4 -12 0 -15 -8 -3 -9 -17 -18 -32 -22 -15 -3 -40 -19 -57 -34 -63
-60 -225 -156 -295 -176 -14 -4 -50 -24 -80 -45 -48 -33 -165 -104 -295 -178
-22 -13 -67 -41 -100 -62 -33 -21 -93 -57 -133 -81 -40 -24 -99 -60 -131 -79
-32 -19 -91 -55 -132 -79 -209 -126 -319 -207 -319 -236 0 -23 25 -35 56 -26
38 11 132 59 163 82 22 18 41 18 41 0 0 -5 -14 -14 -31 -21 -18 -8 -28 -18
-25 -26 3 -8 0 -11 -8 -8 -20 8 -201 -118 -200 -138 1 -10 -3 -15 -8 -12 -6 4
-8 -2 -6 -12 5 -26 43 -29 90 -8 28 13 35 20 26 26 -9 6 -5 7 10 3 12 -4 22
-2 22 4 0 6 7 8 16 4 13 -5 13 -7 2 -14 -7 -5 -8 -9 -3 -9 6 -1 -5 -7 -23 -15
-46 -20 -201 -137 -207 -156 -8 -25 5 -49 27 -49 29 0 178 81 171 93 -3 6 -1
7 4 4 13 -8 329 170 326 183 -2 6 0 9 5 8 4 -1 18 2 31 6 19 6 21 10 10 18
-10 7 -9 8 7 4 12 -4 28 1 40 12 18 17 27 22 40 22 4 0 0 8 -7 18 -12 15 -12
16 2 4 17 -13 49 -7 49 9 0 5 5 9 11 9 6 0 72 37 147 83 75 46 148 90 162 98
14 8 27 17 30 20 3 3 12 9 20 13 41 19 59 34 52 41 -4 5 -1 5 6 1 15 -9 75 31
67 45 -4 5 0 6 8 3 8 -3 84 37 168 89 85 52 170 103 189 115 19 11 82 48 140
82 58 35 112 68 120 75 27 23 112 66 118 60 9 -8 -37 -40 -165 -114 -32 -18
-60 -37 -63 -40 -6 -8 -229 -143 -304 -184 -97 -54 -146 -89 -139 -100 3 -6 1
-7 -5 -3 -7 4 -44 -12 -82 -34 -63 -37 -70 -43 -58 -58 12 -15 11 -16 -4 -4
-18 15 -9 19 -308 -162 -91 -56 -126 -82 -118 -89 9 -6 8 -7 -4 -3 -22 7 -90
-32 -81 -47 3 -6 1 -7 -6 -3 -21 13 -247 -147 -234 -167 3 -5 1 -7 -5 -3 -16
10 -25 -13 -12 -29 7 -8 22 -15 34 -15 28 0 292 145 289 159 -2 6 4 8 14 4 12
-5 14 -3 8 7 -5 8 -4 11 3 6 6 -3 80 35 164 86 183 111 208 124 208 103 0 -8
-4 -15 -9 -15 -20 0 -110 -63 -104 -73 3 -6 1 -7 -5 -3 -17 10 -347 -194 -446
-276 -31 -26 -31 -53 -1 -64 27 -11 332 154 327 176 -1 6 2 9 7 6 11 -7 123
58 116 67 -3 4 -2 5 2 2 3 -3 26 7 50 21 24 14 49 24 56 21 10 -3 -165 -127
-179 -127 -6 0 -133 -87 -156 -108 -10 -8 -15 -19 -12 -23 3 -5 -2 -6 -10 -3
-19 7 -49 -37 -40 -60 3 -9 15 -16 25 -16 28 0 149 62 142 73 -3 6 -1 7 5 3 9
-6 107 41 141 68 8 6 32 21 55 32 23 12 40 26 39 32 -2 7 4 9 14 5 10 -4 14
-2 10 4 -5 7 1 9 15 5 12 -3 19 -1 15 5 -3 5 -1 10 6 10 22 1 232 135 229 146
-2 7 0 9 3 5 7 -7 65 17 75 32 8 10 95 50 110 50 18 0 -21 -28 -133 -94 -54
-32 -96 -61 -93 -63 2 -3 15 0 28 7 22 11 22 10 4 -4 -11 -9 -27 -14 -35 -11
-16 5 -46 -13 -181 -107 -130 -89 -151 -116 -110 -138 23 -12 15 -16 183 79
65 36 127 71 137 77 11 6 17 14 12 18 -4 4 -2 6 3 5 18 -5 76 31 69 43 -4 6
-3 8 4 4 6 -3 27 3 47 15 27 16 39 19 48 10 8 -8 8 -11 -2 -11 -20 0 -72 -40
-66 -51 4 -5 -2 -6 -11 -2 -13 5 -15 3 -9 -7 5 -9 4 -11 -4 -6 -15 10 -43 -13
-34 -27 3 -6 1 -7 -5 -3 -18 11 -37 -4 -21 -16 11 -7 9 -8 -4 -4 -23 7 -79
-24 -73 -40 2 -6 -3 -11 -12 -10 -9 0 -16 -5 -14 -12 1 -8 -2 -11 -8 -7 -16
10 -34 -6 -19 -17 10 -7 8 -8 -6 -4 -23 7 -85 -43 -85 -67 0 -22 25 -38 46
-30 11 3 79 41 152 82 73 42 149 85 167 95 19 11 31 24 28 29 -3 6 -1 7 5 3 7
-4 50 17 97 46 133 82 159 98 172 104 7 3 10 11 6 17 -3 6 -1 7 5 3 11 -7 71
26 285 158 59 36 110 66 112 66 17 0 173 105 168 113 -3 6 -1 7 5 3 6 -3 51
15 99 42 48 27 98 52 111 56 26 9 31 51 6 60 -21 8 -75 -18 -242 -116 -73 -43
-135 -78 -138 -78 -15 0 -73 -48 -66 -55 4 -5 1 -5 -5 -1 -7 4 -18 4 -25 0 -8
-5 -6 -10 7 -14 18 -6 17 -7 -3 -12 -12 -4 -20 -2 -16 3 8 14 -9 11 -34 -7
-12 -8 -30 -14 -40 -11 -16 4 -16 4 0 11 29 13 177 112 264 178 62 46 84 69
84 86 0 12 -7 25 -15 28 -25 10 -17 22 33 51 26 15 86 53 133 85 48 32 91 58
96 58 6 0 18 9 28 20 10 11 22 20 27 20 6 0 28 13 51 29 23 16 83 55 132 87
103 67 186 130 198 151 16 27 -1 46 -36 40 -42 -7 -373 -192 -369 -207 1 -6
-2 -9 -7 -6 -10 7 -48 -14 -278 -152 -81 -48 -140 -89 -136 -95 3 -6 1 -7 -5
-3 -7 4 -39 -9 -72 -30 -58 -36 -77 -53 -44 -40 9 3 12 2 9 -5 -4 -6 -13 -8
-21 -5 -7 3 -55 -19 -106 -49 -50 -30 -95 -55 -100 -55 -27 0 20 37 132 105
118 70 156 97 114 81 -9 -3 -12 -2 -9 5 4 6 14 8 22 5 18 -7 56 17 45 29 -4 5
-2 5 5 1 16 -9 95 43 86 57 -3 6 -1 7 6 3 14 -9 113 52 105 65 -3 5 1 7 8 4 7
-3 45 19 83 47 75 57 93 91 55 103 -26 8 -82 -13 -73 -28 3 -6 1 -7 -6 -3 -6
4 -45 -11 -87 -34 -41 -22 -80 -38 -86 -34 -7 4 -4 10 8 17 79 42 220 145 237
173 13 22 -4 44 -33 44 -16 0 -32 4 -35 10 -3 5 0 10 7 10 11 0 83 43 167 99
13 9 31 21 40 26 40 25 150 101 183 128 43 34 53 54 37 73 -18 22 -49 17 -129
-22 -58 -28 -71 -37 -60 -46 12 -8 12 -9 -3 -4 -9 3 -35 -4 -58 -15 -22 -12
-42 -20 -44 -17 -9 8 13 27 70 58 63 34 107 69 72 57 -12 -5 -16 -3 -11 5 5 8
0 9 -16 5 -17 -4 -20 -3 -12 5 9 9 18 8 38 -1 22 -9 30 -9 48 3 83 59 100 73
109 87 15 24 1 49 -26 49 -28 0 -161 -63 -264 -126 -51 -31 -79 -42 -85 -36
-7 7 6 20 42 39 28 15 87 54 131 86 63 46 79 64 79 84 0 19 -4 24 -16 19 -10
-4 -13 -2 -8 6 5 8 2 9 -12 4 -61 -25 -78 -9 -21 20 49 26 182 115 185 125 2
5 9 9 15 9 21 0 107 81 107 100 0 19 -19 30 -51 30 -10 0 -62 -22 -116 -50
-108 -55 -103 -53 -103 -41 0 5 25 27 55 50 41 31 55 48 55 67 0 13 -7 27 -15
30 -20 8 -101 -21 -98 -34 2 -6 -3 -9 -10 -6 -18 6 -162 -71 -162 -88 0 -7 -9
-13 -20 -13 -24 0 -47 -14 -40 -24 2 -5 -7 -6 -20 -3 -31 5 -32 20 -2 31 39
16 127 92 127 111 0 11 -9 24 -20 30 -17 9 -34 5 -91 -21 -38 -18 -72 -29 -75
-26 -4 3 20 23 53 44 139 90 171 121 157 157 -7 18 -39 22 -49 6 -7 -12 -25
-4 -25 11 0 5 8 13 18 16 9 4 40 22 69 40 29 18 56 33 62 33 5 0 11 3 13 8 2
4 52 39 113 77 60 38 118 78 127 87 10 10 20 17 23 16 11 -7 85 66 85 84 0 10
-4 16 -10 13 -5 -3 -10 -1 -10 4 0 19 -47 12 -105 -14 -34 -16 -53 -30 -49
-37 4 -7 3 -8 -5 -4 -6 4 -23 0 -37 -9 -26 -17 -41 -15 -29 4 3 6 27 23 53 38
57 33 144 100 155 120 14 23 0 43 -31 43 -37 0 -299 -133 -422 -214 -56 -37
-70 -40 -78 -16 -3 8 0 10 7 5 18 -10 56 26 39 37 -8 5 -4 7 12 6 15 -2 24 2
23 9 -2 7 3 10 10 7 7 -2 28 11 46 30 29 30 32 38 21 51 -7 8 -22 15 -34 15
-33 0 -163 -66 -429 -219 -55 -31 -90 -54 -105 -68 -7 -7 -23 -13 -34 -13 -20
0 -20 1 -3 20 9 10 36 29 59 41 65 34 137 90 129 101 -3 6 -1 8 4 5 15 -10 35
17 27 37 -9 23 -52 20 -99 -7 -22 -13 -48 -26 -58 -30 -29 -11 -4 26 30 43 68
36 285 175 339 218 60 49 73 76 43 95 -13 8 -31 4 -73 -17 -50 -25 -55 -30
-44 -44 12 -15 11 -16 -4 -3 -19 14 -53 8 -43 -8 8 -13 -10 -22 -29 -15 -25
10 -20 16 44 58 61 39 89 65 56 53 -11 -4 -15 -3 -11 4 4 6 13 8 21 5 14 -5
94 58 94 74 0 5 -7 15 -15 24 -14 13 -20 13 -62 -1 -26 -9 -73 -31 -106 -50
-32 -18 -62 -33 -65 -33 -4 0 -56 -29 -117 -65 -107 -63 -151 -81 -126 -52 6
8 7 18 3 22 -4 5 -1 5 5 1 17 -9 55 12 47 26 -4 7 -3 8 4 4 10 -6 31 7 68 42
20 19 17 49 -4 61 -22 12 -97 -17 -213 -83 -89 -50 -129 -65 -129 -47 0 6 4
11 9 11 16 0 159 91 196 125 31 29 35 37 25 54 -6 12 -20 21 -30 21 -31 0
-195 -75 -231 -106 -18 -16 -39 -18 -39 -5 0 4 12 17 27 27 88 63 111 104 65
116 -22 6 -75 -16 -65 -26 5 -4 1 -7 -7 -6 -26 4 -36 1 -58 -20 -12 -12 -22
-18 -22 -14 0 3 -6 2 -13 -4 -7 -6 -25 -15 -39 -21 -49 -18 -21 14 40 48 64
36 65 36 182 110 262 166 287 188 257 218 -13 13 -21 13 -53 3 -58 -18 -275
-140 -269 -151 4 -5 -2 -6 -11 -2 -13 5 -15 3 -9 -7 5 -8 4 -11 -2 -7 -9 6
-38 -9 -171 -91 -20 -12 -44 -25 -52 -29 -8 -4 -17 -9 -20 -12 -3 -4 -18 -13
-35 -21 -16 -8 -33 -16 -37 -18 -5 -2 -8 1 -8 7 0 5 20 22 43 36 40 23 44 28
42 60 -2 31 -1 33 16 24 13 -6 25 -6 38 1 12 6 22 6 26 1 7 -12 131 63 128 78
-2 6 3 8 10 5 14 -5 162 96 183 125 16 22 0 50 -29 49 -12 0 -39 -7 -60 -16
-28 -11 -34 -18 -25 -25 9 -6 7 -7 -6 -3 -12 4 -36 -5 -68 -25 -36 -24 -52
-29 -60 -21 -7 7 -10 13 -7 15 2 1 27 15 54 30 28 14 49 31 48 36 -2 6 3 8 11
5 7 -3 19 2 26 11 7 8 17 15 23 15 18 0 116 85 117 101 0 31 -25 42 -67 29
-21 -7 -42 -16 -48 -20 -5 -4 -48 -27 -95 -51 -47 -24 -106 -56 -132 -72 -71
-43 -81 -27 -13 20 33 23 73 55 89 72 24 25 27 33 16 46 -18 21 -41 19 -107
-10 -46 -21 -55 -28 -43 -36 12 -8 10 -9 -7 -4 -13 4 -37 -3 -65 -19 -23 -14
-62 -35 -85 -47 -23 -12 -39 -27 -36 -32 3 -6 1 -7 -5 -3 -14 8 -105 -47 -95
-58 4 -4 1 -4 -8 -1 -9 3 -72 -30 -154 -81 -164 -101 -195 -118 -195 -106 0
12 44 52 56 52 14 0 197 122 232 155 22 20 25 28 16 43 -19 30 -56 24 -148
-23 -49 -25 -91 -44 -93 -41 -3 3 16 20 43 38 134 93 169 123 169 148 0 18 -6
26 -23 28 -30 4 -87 -23 -262 -128 -80 -47 -153 -89 -162 -93 -23 -8 -30 4
-12 21 8 7 14 10 14 7 0 -3 19 7 43 22 23 14 58 36 77 48 113 70 169 111 165
122 -2 7 2 10 9 7 8 -3 17 0 22 7 5 8 3 10 -6 4 -9 -5 -11 -4 -6 4 4 6 12 9
17 6 12 -8 39 19 39 38 0 8 -7 20 -16 28 -13 11 -27 7 -92 -25 -42 -21 -115
-62 -162 -91 -47 -28 -104 -62 -128 -74 -23 -12 -40 -26 -37 -31 3 -5 0 -7 -8
-5 -7 3 -29 -5 -48 -18 -19 -13 -80 -50 -135 -83 -97 -57 -142 -86 -180 -112
-17 -12 -17 -13 -1 -8 11 4 16 2 12 -5 -4 -6 -13 -8 -20 -5 -8 3 -39 -9 -70
-26 -31 -16 -59 -27 -62 -24 -8 8 -14 4 119 86 65 40 115 76 112 81 -3 5 3 6
12 2 13 -5 15 -3 9 7 -5 9 -4 11 4 6 7 -5 28 3 49 16 20 14 55 36 77 50 285
179 330 219 294 255 -11 11 -33 7 -94 -17 -29 -11 -29 -12 -11 -26 11 -8 15
-14 10 -14 -6 0 -15 5 -21 11 -17 17 -94 -26 -87 -49 4 -13 3 -14 -4 -4 -7 11
-16 9 -43 -7 -19 -12 -40 -21 -46 -21 -22 0 -14 16 15 31 44 22 154 101 196
140 34 32 37 38 27 57 -14 27 -15 27 -71 -2z m59 -19 c0 -9 -2 -8 -6 1 -2 6
-10 9 -15 6 -7 -4 -8 -2 -4 5 9 13 26 5 25 -12z m-74 -17 c-3 -5 -12 -10 -18
-10 -7 0 -6 4 3 10 19 12 23 12 15 0z m25 -24 c0 -2 -7 -7 -16 -10 -8 -3 -12
-2 -9 4 6 10 25 14 25 6z m-63 -31 c0 -8 -4 -12 -9 -9 -5 3 -6 10 -3 15 9 13
12 11 12 -6z m177 -23 c2 -4 -7 -8 -22 -9 -24 -2 -24 -1 -7 7 11 5 21 9 22 9
1 1 4 -3 7 -7z m211 -12 c-3 -5 -14 -10 -23 -10 -15 0 -15 2 -2 10 20 13 33
13 25 0z m-297 -65 c-3 -3 -9 2 -12 12 -6 14 -5 15 5 6 7 -7 10 -15 7 -18z
m962 -15 c0 -5 -9 -14 -20 -20 -14 -7 -20 -7 -20 0 0 5 7 10 15 10 9 0 12 6 8
17 -4 11 -3 14 5 9 7 -4 12 -11 12 -16z m-1490 6 c0 -2 -8 -10 -17 -17 -16
-13 -17 -12 -4 4 13 16 21 21 21 13z m680 -26 c-24 -15 -36 -11 -14 4 10 8 21
12 24 10 2 -3 -2 -9 -10 -14z m1047 4 c-3 -3 -12 -4 -19 -1 -8 3 -5 6 6 6 11
1 17 -2 13 -5z m-1552 -14 c-3 -5 -12 -10 -18 -10 -7 0 -6 4 3 10 19 12 23 12
15 0z m1445 -4 c0 -2 -9 -6 -20 -9 -11 -3 -18 -1 -14 4 5 9 34 13 34 5z m-785
-16 c-3 -5 -12 -10 -18 -10 -7 0 -6 4 3 10 19 12 23 12 15 0z m-135 -4 c0 -2
-7 -6 -15 -10 -8 -3 -15 -1 -15 4 0 6 7 10 15 10 8 0 15 -2 15 -4z m170 -6 c0
-5 -2 -10 -4 -10 -3 0 -8 5 -11 10 -3 6 -1 10 4 10 6 0 11 -4 11 -10z m-1020
-20 c0 -5 -2 -10 -4 -10 -3 0 -8 5 -11 10 -3 6 -1 10 4 10 6 0 11 -4 11 -10z
m700 0 c0 -5 -2 -10 -4 -10 -3 0 -8 5 -11 10 -3 6 -1 10 4 10 6 0 11 -4 11
-10z m100 -5 c-7 -8 -17 -15 -23 -15 -6 0 -2 7 9 15 25 19 30 19 14 0z m615
-5 c3 -5 2 -10 -4 -10 -5 0 -13 5 -16 10 -3 6 -2 10 4 10 5 0 13 -4 16 -10z
m-747 -9 c11 -7 11 -9 -2 -14 -9 -4 -23 -4 -32 0 -13 5 -13 7 -2 14 7 5 15 9
18 9 3 0 11 -4 18 -9z m232 5 c0 -2 -7 -7 -16 -10 -8 -3 -12 -2 -9 4 6 10 25
14 25 6z m803 -13 c3 -5 -5 -8 -18 -8 -13 0 -21 3 -18 8 2 4 10 7 18 7 8 0 16
-3 18 -7z m-1760 -27 c4 -10 1 -13 -8 -9 -8 3 -12 9 -9 14 7 12 11 11 17 -5z
m1097 -21 c0 -2 -10 -9 -22 -15 -22 -11 -22 -10 -4 4 21 17 26 19 26 11z
m-1154 -20 c-8 -8 -20 -15 -27 -15 -7 0 -4 6 7 15 25 19 40 19 20 0z m199 5
c-3 -5 -12 -10 -18 -10 -7 0 -6 4 3 10 19 12 23 12 15 0z m272 -12 c-3 -8 -6
-5 -6 6 -1 11 2 17 5 13 3 -3 4 -12 1 -19z m198 4 c-3 -3 -11 0 -18 7 -9 10
-8 11 6 5 10 -3 15 -9 12 -12z m-732 1 c-7 -2 -19 -2 -25 0 -7 3 -2 5 12 5 14
0 19 -2 13 -5z m1237 3 c0 -2 -7 -7 -16 -10 -8 -3 -12 -2 -9 4 6 10 25 14 25
6z m440 0 c0 -2 -7 -7 -16 -10 -8 -3 -12 -2 -9 4 6 10 25 14 25 6z m-495 -24
c-3 -3 -11 0 -18 7 -9 10 -8 11 6 5 10 -3 15 -9 12 -12z m1010 -2 c3 -5 2 -10
-4 -10 -5 0 -13 5 -16 10 -3 6 -2 10 4 10 5 0 13 -4 16 -10z m-975 -4 c0 -2
-7 -7 -16 -10 -8 -3 -12 -2 -9 4 6 10 25 14 25 6z m880 -68 c0 -6 -6 -5 -15 2
-8 7 -15 14 -15 16 0 2 7 1 15 -2 8 -4 15 -11 15 -16z m44 -10 c-3 -5 -10 -6
-15 -3 -5 4 -9 1 -9 -6 0 -7 -3 -10 -6 -6 -9 9 3 24 20 24 8 0 13 -4 10 -9z
m-58 -19 c11 -18 -14 -35 -28 -20 -11 10 -10 11 5 6 19 -8 24 10 5 18 -10 4
-10 6 -1 6 6 1 15 -4 19 -10z m-2441 -198 c-3 -6 -11 -11 -16 -11 -5 0 -4 6 3
14 14 16 24 13 13 -3z m2295 9 c0 -5 -2 -10 -4 -10 -3 0 -8 5 -11 10 -3 6 -1
10 4 10 6 0 11 -4 11 -10z m20 -25 c-7 -8 -18 -15 -24 -15 -6 0 -2 7 8 15 25
19 32 19 16 0z m185 -17 c-9 -6 -19 -7 -22 -4 -4 3 -1 6 6 6 7 0 9 4 6 10 -4
6 1 7 11 3 15 -6 15 -7 -1 -15z m-2361 -24 c3 -8 2 -12 -4 -9 -6 3 -10 10 -10
16 0 14 7 11 14 -7z m2496 -68 c0 -2 -8 -10 -17 -17 -16 -13 -17 -12 -4 4 13
16 21 21 21 13z m-270 -21 c-7 -8 -20 -15 -29 -15 -11 0 -8 5 9 14 33 19 35
19 20 1z m628 -50 c-3 -3 -9 2 -12 12 -6 14 -5 15 5 6 7 -7 10 -15 7 -18z
m-18 -25 c0 -5 -2 -10 -4 -10 -3 0 -8 5 -11 10 -3 6 -1 10 4 10 6 0 11 -4 11
-10z m-365 -28 c-3 -3 -11 0 -18 7 -9 10 -8 11 6 5 10 -3 15 -9 12 -12z m846
-111 c-8 -5 -10 -14 -6 -22 6 -11 5 -11 -5 -2 -14 12 -6 33 13 33 8 0 7 -3 -2
-9z m-378 -58 c3 -5 -6 -9 -20 -10 -19 -1 -22 1 -12 8 17 11 26 11 32 2z
m-2028 -13 c-3 -5 2 -10 12 -11 10 0 0 -7 -21 -15 -22 -8 -41 -12 -44 -10 -2
3 7 8 21 12 15 3 26 9 25 13 -1 12 2 21 8 21 3 0 2 -4 -1 -10z m1595 -14 c0
-2 -7 -7 -16 -10 -8 -3 -12 -2 -9 4 6 10 25 14 25 6z m425 -6 c-3 -5 -11 -10
-16 -10 -6 0 -7 5 -4 10 3 6 11 10 16 10 6 0 7 -4 4 -10z m290 0 c-3 -5 -12
-10 -18 -10 -7 0 -6 4 3 10 19 12 23 12 15 0z m-385 -10 c0 -5 -5 -10 -11 -10
-5 0 -7 5 -4 10 3 6 8 10 11 10 2 0 4 -4 4 -10z m37 -26 c-3 -3 -12 -4 -19 -1
-8 3 -5 6 6 6 11 1 17 -2 13 -5z m-337 -8 c0 -2 -8 -10 -17 -17 -16 -13 -17
-12 -4 4 13 16 21 21 21 13z m10 -25 c0 -5 -7 -12 -16 -15 -14 -5 -15 -4 -4 9
14 17 20 19 20 6z m-3055 -41 c-3 -5 -12 -10 -18 -10 -7 0 -6 4 3 10 19 12 23
12 15 0z m243 -4 c-2 -1 -12 -8 -23 -16 -18 -14 -19 -13 -8 1 7 9 10 19 6 23
-4 4 1 4 10 0 10 -3 17 -7 15 -8z m2902 -6 c-8 -5 -19 -10 -25 -10 -5 0 -3 5
5 10 8 5 20 10 25 10 6 0 3 -5 -5 -10z m-3090 -40 c0 -5 -7 -7 -15 -4 -8 4
-15 8 -15 10 0 2 7 4 15 4 8 0 15 -4 15 -10z m3645 -10 c3 -5 1 -10 -4 -10 -6
0 -11 5 -11 10 0 6 2 10 4 10 3 0 8 -4 11 -10z m-1334 -17 c13 -16 12 -17 -3
-4 -17 13 -22 21 -14 21 2 0 10 -8 17 -17z m-2286 -23 c-3 -5 -12 -10 -18 -10
-7 0 -6 4 3 10 19 12 23 12 15 0z m992 -25 c-15 -16 -19 -13 -11 9 3 9 10 13
15 10 5 -3 3 -11 -4 -19z m-46 -18 c-10 -9 -11 -8 -5 6 3 10 9 15 12 12 3 -3
0 -11 -7 -18z m-7 -39 c-10 -13 -19 -24 -20 -26 -1 -2 -4 4 -8 13 -3 9 -2 14
3 11 5 -3 14 1 21 9 7 8 15 15 18 15 3 0 -3 -10 -14 -22z m-1117 -14 c-3 -3
-12 -4 -19 -1 -8 3 -5 6 6 6 11 1 17 -2 13 -5z m1049 -18 c0 -14 -5 -21 -9
-17 -4 4 -5 15 -1 24 9 24 12 21 10 -7z m2514 14 c8 -5 11 -10 5 -10 -5 0 -17
5 -25 10 -8 5 -10 10 -5 10 6 0 17 -5 25 -10z m-3640 -26 c0 -2 -7 -4 -15 -4
-8 0 -15 4 -15 10 0 5 7 7 15 4 8 -4 15 -8 15 -10z m1140 -30 c0 -8 -19 -13
-24 -6 -3 5 1 9 9 9 8 0 15 -2 15 -3z m1585 -42 c-3 -3 -11 0 -18 7 -9 10 -8
11 6 5 10 -3 15 -9 12 -12z m-2472 -19 c-7 -2 -21 -2 -30 0 -10 3 -4 5 12 5
17 0 24 -2 18 -5z m2509 -45 c-7 -7 -12 -8 -12 -2 0 6 3 14 7 17 3 4 9 5 12 2
2 -3 -1 -11 -7 -17z m798 -17 c0 -5 -7 -12 -16 -15 -14 -5 -15 -4 -4 9 14 17
20 19 20 6z m-3520 -55 c0 -3 -4 -8 -10 -11 -5 -3 -10 -1 -10 4 0 6 5 11 10
11 6 0 10 -2 10 -4z m3420 -21 c-7 -8 -18 -15 -24 -15 -6 0 -2 7 8 15 25 19
32 19 16 0z m-3450 1 c0 -2 -7 -7 -16 -10 -8 -3 -12 -2 -9 4 6 10 25 14 25 6z
m3595 -16 c3 -6 -1 -7 -9 -4 -18 7 -21 14 -7 14 6 0 13 -4 16 -10z m-778 -62
c-3 -7 -5 -2 -5 12 0 14 2 19 5 13 2 -7 2 -19 0 -25z m720 8 c0 -8 -6 -12 -15
-9 -11 5 -11 7 0 14 7 5 13 9 14 9 0 0 1 -6 1 -14z m210 -8 c2 -17 0 -19 -7
-8 -5 8 -6 18 -4 22 8 12 10 10 11 -14z m237 -4 c3 -8 2 -12 -4 -9 -6 3 -10
10 -10 16 0 14 7 11 14 -7z m-4091 -28 c4 -10 1 -13 -8 -9 -8 3 -12 9 -9 14 7
12 11 11 17 -5z m213 -32 c-22 -13 -31 -13 -40 -3 -8 9 -8 10 1 5 7 -4 21 -2
30 3 10 6 23 10 28 10 6 0 -3 -7 -19 -15z m881 -36 c-3 -8 -6 -5 -6 6 -1 11 2
17 5 13 3 -3 4 -12 1 -19z m-1003 -40 c-3 -4 -9 -8 -15 -8 -5 0 -9 4 -9 8 0 5
7 9 15 9 8 0 12 -4 9 -9z m-7 -118 c-1 -11 -5 -20 -9 -20 -10 0 -10 4 -2 24 8
22 13 20 11 -4z m3764 -53 c-10 -9 -11 -8 -5 6 3 10 9 15 12 12 3 -3 0 -11 -7
-18z m-3686 -47 c3 -6 -1 -7 -9 -4 -18 7 -21 14 -7 14 6 0 13 -4 16 -10z
m2762 -22 c-3 -8 -6 -5 -6 6 -1 11 2 17 5 13 3 -3 4 -12 1 -19z m1023 7 c-7
-8 -17 -15 -22 -15 -11 0 14 29 26 30 5 0 3 -7 -4 -15z m-3480 -5 c8 -5 11
-10 5 -10 -5 0 -17 5 -25 10 -8 5 -10 10 -5 10 6 0 17 -5 25 -10z m3350 -34
c0 -2 -8 -10 -17 -17 -16 -13 -17 -12 -4 4 13 16 21 21 21 13z m-3920 -76 c0
-5 -5 -10 -11 -10 -5 0 -7 5 -4 10 3 6 8 10 11 10 2 0 4 -4 4 -10z m530 6 c0
-2 -7 -7 -16 -10 -8 -3 -12 -2 -9 4 6 10 25 14 25 6z m3316 -38 c-10 -6 -22
-6 -26 -2 -5 5 3 10 18 11 22 1 24 0 8 -9z m234 -8 c0 -5 -5 -10 -11 -10 -5 0
-7 5 -4 10 3 6 8 10 11 10 2 0 4 -4 4 -10z m-4080 -34 c0 -2 -7 -7 -16 -10 -8
-3 -12 -2 -9 4 6 10 25 14 25 6z m34 -49 c-2 -7 -14 -19 -27 -26 -21 -13 -21
-12 2 13 27 29 33 32 25 13z m-169 -7 c3 -5 1 -10 -4 -10 -6 0 -11 5 -11 10 0
6 2 10 4 10 3 0 8 -4 11 -10z m1384 -10 c-6 -5 -18 -6 -26 -3 -19 8 -16 11 13
11 17 0 22 -3 13 -8z m-54 -30 c-3 -5 -12 -10 -18 -10 -7 0 -6 4 3 10 19 12
23 12 15 0z m99 -28 c3 -5 -1 -9 -9 -9 -8 0 -12 4 -9 9 3 4 7 8 9 8 2 0 6 -4
9 -8z m-99 -42 c-3 -5 -12 -10 -18 -10 -7 0 -6 4 3 10 19 12 23 12 15 0z m97
-17 c-3 -16 -7 -22 -10 -15 -4 13 4 42 11 42 2 0 2 -12 -1 -27z m-742 -63 c0
-5 -2 -10 -4 -10 -3 0 -8 5 -11 10 -3 6 -1 10 4 10 6 0 11 -4 11 -10z m435
-51 c11 -16 1 -19 -13 -3 -7 8 -8 14 -3 14 5 0 13 -5 16 -11z m1769 -57 c3 -5
-1 -9 -9 -9 -8 0 -15 4 -15 9 0 4 4 8 9 8 6 0 12 -4 15 -8z m-2374 -16 c0 -2
-7 -7 -16 -10 -8 -3 -12 -2 -9 4 6 10 25 14 25 6z m-205 -46 c-3 -5 -11 -10
-16 -10 -6 0 -7 5 -4 10 3 6 11 10 16 10 6 0 7 -4 4 -10z m305 -5 c-7 -8 -17
-15 -23 -15 -6 0 -2 7 9 15 25 19 30 19 14 0z m-56 -20 c-4 -8 -11 -15 -16
-15 -6 0 -5 6 2 15 7 8 14 15 16 15 2 0 1 -7 -2 -15z m-254 -35 c0 -5 -4 -10
-10 -10 -5 0 -10 5 -10 10 0 6 5 10 10 10 6 0 10 -4 10 -10z m3450 -4 c0 -2
-7 -7 -16 -10 -8 -3 -12 -2 -9 4 6 10 25 14 25 6z m-2660 -70 c0 -2 -7 -6 -15
-10 -8 -3 -15 -1 -15 4 0 6 7 10 15 10 8 0 15 -2 15 -4z m90 -11 c0 -2 -10 -9
-22 -15 -22 -11 -22 -10 -4 4 21 17 26 19 26 11z m317 -11 c-3 -3 -12 -4 -19
-1 -8 3 -5 6 6 6 11 1 17 -2 13 -5z m556 -1 c-7 -2 -19 -2 -25 0 -7 3 -2 5 12
5 14 0 19 -2 13 -5z m-596 -9 c-3 -3 -12 -4 -19 -1 -8 3 -5 6 6 6 11 1 17 -2
13 -5z m-387 -19 c0 -7 -30 -13 -34 -7 -3 4 4 9 15 9 10 1 19 0 19 -2z m-234
-17 c-9 -5 -23 -5 -32 0 -12 6 -7 9 16 9 23 0 28 -3 16 -9z m189 -18 c-3 -5
-12 -10 -18 -10 -7 0 -6 4 3 10 19 12 23 12 15 0z m2845 -10 c0 -5 -5 -10 -11
-10 -5 0 -7 5 -4 10 3 6 8 10 11 10 2 0 4 -4 4 -10z m-2708 -17 c-6 -2 -10 -9
-7 -14 4 -5 -1 -6 -10 -2 -13 5 -14 7 -3 14 7 5 18 8 23 8 6 0 4 -3 -3 -6z
m-608 -77 c-3 -9 -10 -13 -15 -10 -5 3 -3 11 4 19 15 16 19 13 11 -9z m-184
10 c0 -3 -4 -8 -10 -11 -5 -3 -10 -1 -10 4 0 6 5 11 10 11 6 0 10 -2 10 -4z
m3369 1 c-28 -21 -59 -36 -59 -29 0 9 37 30 54 31 5 1 7 0 5 -2z m-2679 -111
c0 -2 -7 -7 -16 -10 -8 -3 -12 -2 -9 4 6 10 25 14 25 6z m2805 -26 c-3 -5 -14
-10 -23 -10 -15 0 -15 2 -2 10 20 13 33 13 25 0z m-50 -20 c-3 -5 -12 -10 -18
-10 -7 0 -6 4 3 10 19 12 23 12 15 0z m-2555 -11 c12 -9 12 -10 -3 -5 -10 3
-28 1 -40 -5 -21 -10 -21 -10 -3 5 23 19 26 19 46 5z m1445 1 c-3 -5 -12 -10
-18 -10 -7 0 -6 4 3 10 19 12 23 12 15 0z m1056 -43 c-10 -9 -11 -8 -5 6 3 10
9 15 12 12 3 -3 0 -11 -7 -18z m-2751 -21 c0 -3 -4 -8 -10 -11 -5 -3 -10 -1
-10 4 0 6 5 11 10 11 6 0 10 -2 10 -4z m1426 -28 c-10 -6 -22 -6 -26 -2 -5 5
3 10 18 11 22 1 24 0 8 -9z m1044 -25 c0 -1 -10 -7 -21 -14 -16 -8 -20 -8 -14
0 5 8 -2 10 -22 6 -22 -4 -24 -3 -8 4 17 7 65 10 65 4z m-2635 -41 c-3 -3 -11
0 -18 7 -9 10 -8 11 6 5 10 -3 15 -9 12 -12z m2740 8 c-3 -5 -12 -10 -18 -10
-7 0 -6 4 3 10 19 12 23 12 15 0z m-175 -4 c0 -2 -7 -7 -16 -10 -8 -3 -12 -2
-9 4 6 10 25 14 25 6z m-1165 -56 c-3 -5 -12 -10 -18 -10 -7 0 -6 4 3 10 19
12 23 12 15 0z m-1615 -20 c0 -5 -4 -10 -10 -10 -5 0 -10 5 -10 10 0 6 5 10
10 10 6 0 10 -4 10 -10z m2805 0 c-3 -5 -12 -10 -18 -10 -7 0 -6 4 3 10 19 12
23 12 15 0z m-1411 -59 c-10 -10 -21 -16 -24 -14 -3 3 4 11 14 19 28 20 33 17
10 -5z m-724 5 c0 -2 -7 -7 -16 -10 -8 -3 -12 -2 -9 4 6 10 25 14 25 6z m221
-13 c13 -16 12 -17 -3 -5 -9 8 -23 10 -29 6 -8 -4 -9 -3 -5 4 10 17 21 15 37
-5z m589 12 c0 -2 -10 -9 -22 -15 -22 -11 -22 -10 -4 4 21 17 26 19 26 11z
m-635 -43 c-3 -3 -11 0 -18 7 -9 10 -8 11 6 5 10 -3 15 -9 12 -12z m-563 -24
c-8 -8 -9 -4 -5 13 4 13 8 18 11 10 2 -7 -1 -18 -6 -23z m1263 14 c-3 -3 -11
0 -18 7 -9 10 -8 11 6 5 10 -3 15 -9 12 -12z m52 12 c-3 -3 -12 -4 -19 -1 -8
3 -5 6 6 6 11 1 17 -2 13 -5z m1022 -28 c-2 -2 -15 -9 -29 -15 -24 -11 -24
-11 -6 3 16 13 49 24 35 12z m-1764 -16 c-3 -5 -12 -10 -18 -10 -7 0 -6 4 3
10 19 12 23 12 15 0z m-290 -10 c3 -6 -1 -7 -9 -4 -18 7 -21 14 -7 14 6 0 13
-4 16 -10z m199 -6 c3 -8 2 -12 -4 -9 -6 3 -10 10 -10 16 0 14 7 11 14 -7z
m651 -32 c-3 -3 -11 0 -18 7 -9 10 -8 11 6 5 10 -3 15 -9 12 -12z m-70 -50
c-3 -3 -11 0 -18 7 -9 10 -8 11 6 5 10 -3 15 -9 12 -12z m65 14 c0 -2 -7 -7
-16 -10 -8 -3 -12 -2 -9 4 6 10 25 14 25 6z m-250 -10 c0 -2 -7 -7 -16 -10 -8
-3 -12 -2 -9 4 6 10 25 14 25 6z m135 -6 c-3 -5 -12 -10 -18 -10 -7 0 -6 4 3
10 19 12 23 12 15 0z m790 0 c-3 -5 -16 -15 -28 -21 -19 -9 -19 -8 3 10 28 23
34 26 25 11z m315 -4 c0 -2 -7 -7 -16 -10 -8 -3 -12 -2 -9 4 6 10 25 14 25 6z
m-1015 -24 c-3 -3 -11 0 -18 7 -9 10 -8 11 6 5 10 -3 15 -9 12 -12z m-615 -32
c-8 -5 -19 -10 -25 -10 -5 0 -3 5 5 10 8 5 20 10 25 10 6 0 3 -5 -5 -10z m30
-10 c-8 -5 -19 -10 -25 -10 -5 0 -3 5 5 10 8 5 20 10 25 10 6 0 3 -5 -5 -10z
m399 -24 c-2 -2 -15 -9 -29 -15 -24 -11 -24 -11 -6 3 16 13 49 24 35 12z m126
-56 c-3 -5 -12 -10 -18 -10 -7 0 -6 4 3 10 19 12 23 12 15 0z m95 -4 c0 -2 -7
-7 -16 -10 -8 -3 -12 -2 -9 4 6 10 25 14 25 6z m114 -18 c-3 -4 -11 -5 -19 -1
-8 3 -15 0 -15 -6 0 -6 -5 -11 -11 -11 -8 0 -8 4 0 14 12 15 54 18 45 4z m311
2 c3 -6 -1 -7 -9 -4 -18 7 -21 14 -7 14 6 0 13 -4 16 -10z m195 -15 c0 -2 -9
-3 -19 -2 -11 0 -18 5 -15 9 4 6 34 0 34 -7z m-1274 -7 c-10 -6 -22 -6 -26 -2
-5 5 3 10 18 11 22 1 24 0 8 -9z m-49 -20 c-3 -8 -6 -5 -6 6 -1 11 2 17 5 13
3 -3 4 -12 1 -19z m330 0 c-3 -8 -6 -5 -6 6 -1 11 2 17 5 13 3 -3 4 -12 1 -19z
m-17 2 c0 -5 -2 -10 -4 -10 -3 0 -8 5 -11 10 -3 6 -1 10 4 10 6 0 11 -4 11
-10z m190 0 c-8 -5 -19 -10 -25 -10 -5 0 -3 5 5 10 8 5 20 10 25 10 6 0 3 -5
-5 -10z m248 -4 c-7 -8 -15 -12 -17 -11 -5 6 10 25 20 25 5 0 4 -6 -3 -14z
m539 -2 c-3 -3 -12 -4 -19 -1 -8 3 -5 6 6 6 11 1 17 -2 13 -5z m-242 -14 c3
-6 -1 -7 -9 -4 -18 7 -21 14 -7 14 6 0 13 -4 16 -10z m-68 -35 c0 -8 -4 -12
-9 -9 -5 3 -6 10 -3 15 9 13 12 11 12 -6z m263 -9 c0 -2 -7 -7 -16 -10 -8 -3
-12 -2 -9 4 6 10 25 14 25 6z m-116 -27 c-3 -6 0 -15 7 -20 11 -7 10 -9 -3 -9
-18 0 -24 20 -11 33 10 11 15 8 7 -4z"/>
<path d="M3560 4225 c-19 -14 -30 -25 -26 -25 13 0 66 34 66 42 0 12 -3 10
-40 -17z"/>
<path d="M3530 4230 c0 -5 5 -10 10 -10 6 0 10 5 10 10 0 6 -4 10 -10 10 -5 0
-10 -4 -10 -10z"/>
<path d="M2775 3559 c-223 -34 -408 -157 -528 -350 -75 -120 -100 -209 -105
-369 -4 -130 -3 -139 28 -233 17 -54 35 -95 40 -92 5 3 7 13 4 23 -5 13 -4 14
4 3 8 -11 14 -10 36 4 14 9 23 21 20 26 -3 5 2 6 10 3 17 -6 117 56 110 68 -3
4 1 5 8 3 8 -3 43 12 78 34 36 22 69 36 74 31 11 -11 -15 -38 -32 -32 -6 2
-12 -1 -12 -6 0 -6 -9 -14 -20 -17 -11 -4 -18 -10 -15 -15 3 -4 -3 -14 -13
-21 -15 -13 -16 -12 -3 4 19 24 7 21 -47 -10 -75 -44 -113 -71 -105 -75 5 -3
2 -3 -5 -1 -11 2 -41 -13 -81 -43 -2 -2 7 -28 20 -58 25 -61 26 -52 -24 -229
-21 -75 -22 -87 -8 -83 9 3 70 19 135 36 l120 31 85 -39 c132 -60 198 -75 331
-75 167 0 302 42 436 134 96 66 205 200 253 311 179 419 -57 906 -494 1019
-87 23 -220 31 -300 18z m292 -35 c-3 -3 -12 -4 -19 -1 -8 3 -5 6 6 6 11 1 17
-2 13 -5z m-314 -21 c-7 -2 -21 -2 -30 0 -10 3 -4 5 12 5 17 0 24 -2 18 -5z
m424 -19 c-3 -3 -12 -4 -19 -1 -8 3 -5 6 6 6 11 1 17 -2 13 -5z m53 -19 c0 -2
-6 -5 -13 -8 -8 -3 -14 1 -14 8 0 7 6 11 14 8 7 -3 13 -6 13 -8z m-685 -23
c-3 -3 -11 0 -18 7 -9 10 -8 11 6 5 10 -3 15 -9 12 -12z m-55 -12 c0 -5 -5
-10 -11 -10 -5 0 -7 5 -4 10 3 6 8 10 11 10 2 0 4 -4 4 -10z m824 -18 c2 -4
-4 -8 -14 -8 -10 0 -16 4 -14 8 3 4 9 8 14 8 5 0 11 -4 14 -8z m71 -82 c3 -6
-1 -7 -9 -4 -18 7 -21 14 -7 14 6 0 13 -4 16 -10z m-731 -101 c-2 -4 14 -49
36 -99 22 -50 40 -104 40 -120 0 -17 -14 -47 -36 -76 l-37 -48 19 -35 c49 -91
247 -251 312 -251 11 0 39 23 67 55 27 32 55 55 66 55 11 0 65 -23 120 -51
l101 -50 -4 -54 c-5 -65 -40 -115 -101 -147 -121 -63 -362 10 -531 162 -130
117 -243 269 -271 364 -31 102 -10 197 56 266 40 41 41 41 104 38 35 -1 61 -6
59 -9z m-390 -55 c3 -8 2 -12 -4 -9 -6 3 -10 10 -10 16 0 14 7 11 14 -7z
m1296 -84 c0 -5 -5 -10 -11 -10 -5 0 -7 5 -4 10 3 6 8 10 11 10 2 0 4 -4 4
-10z m-783 -122 c-3 -8 -6 -5 -6 6 -1 11 2 17 5 13 3 -3 4 -12 1 -19z m-67
-93 c0 -8 -2 -15 -4 -15 -2 0 -6 7 -10 15 -3 8 -1 15 4 15 6 0 10 -7 10 -15z
m-207 -113 c4 9 6 9 6 1 2 -20 -16 -24 -30 -5 -13 15 -12 16 3 4 13 -10 17
-10 21 0z m395 -96 c12 -3 12 -4 -3 -3 -11 1 -20 9 -21 17 0 8 1 10 3 3 2 -6
12 -14 21 -17z m-721 -8 c-3 -8 -6 -5 -6 6 -1 11 2 17 5 13 3 -3 4 -12 1 -19z
m1143 18 c0 -2 -8 -10 -17 -17 -16 -13 -17 -12 -4 4 13 16 21 21 21 13z m-350
-26 c-12 -22 -21 -26 -17 -7 2 10 17 26 25 27 1 0 -2 -9 -8 -20z m70 7 c0 -2
-10 -12 -22 -23 l-23 -19 19 23 c18 21 26 27 26 19z m-445 -17 c-3 -5 -12 -10
-18 -10 -7 0 -6 4 3 10 19 12 23 12 15 0z m-248 -16 c-3 -3 -12 -4 -19 -1 -8
3 -5 6 6 6 11 1 17 -2 13 -5z m-122 -24 c-3 -5 -12 -10 -18 -10 -7 0 -6 4 3
10 19 12 23 12 15 0z m1322 -22 c-3 -8 -6 -5 -6 6 -1 11 2 17 5 13 3 -3 4 -12
1 -19z m-853 -16 c3 -5 -1 -9 -9 -9 -8 0 -12 4 -9 9 3 4 7 8 9 8 2 0 6 -4 9
-8z m16 -36 c-7 -7 -13 -7 -20 0 -6 6 -3 10 10 10 13 0 16 -4 10 -10z m145
-84 c-3 -3 -11 0 -18 7 -9 10 -8 11 6 5 10 -3 15 -9 12 -12z m615 -22 c0 -5
-2 -10 -4 -10 -3 0 -8 5 -11 10 -3 6 -1 10 4 10 6 0 11 -4 11 -10z m-540 -10
c8 -5 11 -10 5 -10 -5 0 -17 5 -25 10 -8 5 -10 10 -5 10 6 0 17 -5 25 -10z
m389 -143 c-2 -1 -13 -9 -24 -17 -19 -14 -19 -14 -6 3 7 9 18 17 24 17 6 0 8
-1 6 -3z m-79 -87 c-8 -5 -19 -10 -25 -10 -5 0 -3 5 5 10 8 5 20 10 25 10 6 0
3 -5 -5 -10z m-616 -35 c25 -19 16 -19 -20 0 -16 8 -22 15 -14 15 8 -1 24 -7
34 -15z m409 -42 c-7 -2 -21 -2 -30 0 -10 3 -4 5 12 5 17 0 24 -2 18 -5z
m-110 -10 c-7 -2 -21 -2 -30 0 -10 3 -4 5 12 5 17 0 24 -2 18 -5z"/>
</g>
</svg>
